<?xml version="1.0" standalone="no"?>
<!DOCTYPE svg PUBLIC "-//W3C//DTD SVG 20010904//EN"
 "http://www.w3.org/TR/2001/REC-SVG-20010904/DTD/svg10.dtd">
<svg version="1.0" xmlns="http://www.w3.org/2000/svg"
 width="492.000000pt" height="246.000000pt" viewBox="0 0 492.000000 246.000000"
 preserveAspectRatio="xMidYMid meet">

<g transform="translate(0.000000,246.000000) scale(0.100000,-0.100000)"
fill="#000000" stroke="none">
<path d="M1358 2344 c-253 -54 -589 -226 -823 -419 -164 -135 -322 -335 -391
-493 -38 -88 -42 -137 -15 -190 34 -66 108 -158 146 -182 84 -52 279 -6 715
171 116 47 171 64 218 67 34 2 62 0 62 -4 0 -5 -26 -25 -57 -43 -171 -101
-370 -257 -490 -383 -83 -89 -167 -205 -184 -255 -10 -31 -8 -41 20 -98 64
-129 161 -171 302 -129 196 58 400 243 531 481 l40 72 26 -19 c15 -11 48 -23
74 -26 l46 -7 37 72 c101 202 281 457 405 576 l41 40 -36 -80 c-110 -241 -167
-416 -163 -501 3 -57 4 -60 38 -76 76 -35 71 -39 124 85 80 187 175 327 354
523 l63 69 -25 -58 c-14 -31 -38 -83 -52 -115 -84 -183 -142 -383 -129 -448 5
-29 13 -39 48 -55 91 -41 139 -20 224 94 l43 59 0 -49 c0 -60 19 -89 74 -114
89 -40 134 -17 238 124 l53 71 8 -44 c16 -88 65 -149 134 -166 93 -24 186 75
257 274 14 40 26 79 26 85 0 7 -22 -23 -50 -66 -82 -128 -186 -225 -212 -199
-15 15 18 183 57 283 19 49 63 144 97 211 35 67 64 126 66 130 6 13 -81 68
-109 68 -61 0 -126 -89 -278 -384 -107 -207 -127 -241 -171 -284 -47 -47 -54
-42 -47 33 11 117 103 341 226 551 29 50 29 52 12 68 -22 20 -68 33 -98 28
-70 -11 -217 -268 -257 -447 -5 -25 -1 -21 28 24 59 91 59 81 0 -76 -42 -111
-59 -128 -50 -52 l7 54 -33 -40 c-60 -72 -122 -124 -135 -111 -10 10 40 157
123 359 41 100 74 189 74 199 0 19 -48 54 -87 64 -13 4 -35 3 -50 -1 -30 -7
-216 -185 -285 -272 -23 -29 -43 -51 -45 -49 -2 1 22 60 52 131 54 123 55 128
38 147 -42 46 -102 60 -151 34 -46 -24 -264 -256 -326 -348 -33 -48 -61 -86
-63 -85 -7 8 78 220 141 352 62 129 65 141 49 152 -20 16 -55 16 -105 3 -46
-13 -74 -48 -142 -178 -50 -95 -52 -97 -125 -138 l-74 -42 -39 20 c-53 28
-106 32 -218 19 -118 -15 -195 -34 -435 -111 -345 -110 -485 -124 -485 -46 0
30 70 154 137 245 75 99 227 251 328 327 287 214 666 388 875 401 109 6 166
-10 162 -47 -12 -110 -158 -253 -392 -385 -137 -78 -142 -87 -84 -141 30 -29
43 -34 82 -34 117 0 359 195 436 350 49 100 55 159 26 228 -27 64 -93 124
-157 146 -58 20 -203 20 -295 0z m143 -1069 c-19 -53 -27 -56 -33 -15 -3 22 1
34 16 44 33 23 35 19 17 -29z m-157 -132 c-10 -71 -45 -161 -87 -224 -74 -113
-261 -271 -380 -324 -85 -37 -217 -59 -217 -35 0 5 33 54 74 108 81 107 200
225 330 326 95 74 267 195 279 196 5 0 5 -21 1 -47z"/>
<path d="M4305 2305 c-60 -21 -90 -65 -154 -230 -51 -129 -198 -568 -227 -675
-8 -29 -21 -41 -77 -72 -36 -20 -92 -54 -123 -76 l-56 -40 -81 66 c-195 159
-219 225 -111 307 69 53 351 138 379 115 17 -14 25 -2 25 37 0 127 -101 165
-274 102 -236 -85 -342 -211 -294 -350 16 -48 69 -129 140 -214 33 -39 69 -86
79 -102 l19 -30 -57 -43 c-358 -268 -669 -642 -707 -851 -9 -52 24 -96 103
-136 74 -39 105 -40 197 -12 251 78 489 284 614 531 86 171 103 337 46 451
-28 58 -34 47 67 118 32 23 60 39 62 37 2 -2 -8 -48 -21 -103 -14 -55 -26
-122 -27 -150 l-2 -50 45 -22 c25 -12 58 -23 73 -25 27 -3 30 1 71 102 69 170
140 301 220 407 80 107 186 202 186 167 0 -3 -24 -52 -54 -108 -72 -136 -121
-263 -142 -367 -16 -84 -16 -88 2 -125 19 -39 53 -68 90 -78 62 -18 227 182
302 367 13 32 22 61 19 63 -2 2 -44 -44 -93 -103 -81 -96 -180 -190 -191 -180
-7 7 65 184 139 340 51 107 68 154 64 171 -9 38 -56 87 -103 108 -42 18 -43
18 -81 -1 -44 -22 -119 -93 -209 -196 -34 -38 -65 -67 -68 -63 -8 8 94 331
167 528 27 74 76 191 109 259 33 68 58 125 57 126 -14 12 -90 12 -123 0z
m-715 -1316 c0 -56 -35 -180 -73 -256 -95 -188 -291 -384 -480 -480 -82 -41
-111 -40 -115 1 -13 108 366 579 622 774 35 27 46 17 46 -39z"/>
</g>
</svg>
